<svg id="Capa_1" enable-background="new 0 0 512 512" height="512" viewBox="0 0 512 512" width="512" xmlns="http://www.w3.org/2000/svg"><g><path d="m401.257 162.504h30v76.176h52.695v-119.677h-135.39v119.677h52.695z"/><path d="m379.047 89.003v-21.793c0-20.518 16.692-37.21 37.21-37.21s37.21 16.692 37.21 37.21v21.793h30v-21.793c0-37.06-30.15-67.21-67.21-67.21s-67.21 30.15-67.21 67.21v21.793z"/><path d="m318.562 268.68v-117.942c-28.511-16.542-61.604-26.022-96.871-26.022-106.775 0-193.643 86.868-193.643 193.643 0 60.518 27.912 114.632 71.531 150.168v-25.291c0-43.484 28.197-80.507 67.268-93.744-11.405-12.911-18.348-29.851-18.348-48.391 0-40.357 32.834-73.19 73.191-73.19s73.19 32.833 73.19 73.19c0 18.54-6.942 35.481-18.347 48.391 39.07 13.238 67.267 50.26 67.267 93.744v25.291c43.619-35.536 71.531-89.65 71.531-150.168 0-17.169-2.258-33.819-6.475-49.679z"/><path d="m221.69 257.909c-23.815 0-43.191 19.375-43.191 43.19s19.376 43.191 43.191 43.191 43.19-19.376 43.19-43.191-19.374-43.19-43.19-43.19z"/><path d="m313.801 443.235c0-38.016-30.929-68.944-68.945-68.944h-46.331c-38.017 0-68.945 30.929-68.945 68.944v45.419c27.408 14.885 58.789 23.346 92.11 23.346s64.702-8.461 92.11-23.345v-45.42z"/></g></svg>