<svg id="Capa_1" enable-background="new 0 0 512 512" height="512" viewBox="0 0 512 512" width="512" xmlns="http://www.w3.org/2000/svg"><g><path d="m152 310c-25.772 0-49.316-9.708-67.18-25.653-12.638 17.007-19.82 38.82-19.82 60.653v23 64c0 16.542 13.458 30 30 30h114c16.542 0 30-13.458 30-30v-64-23c0-21.833-7.182-43.646-19.82-60.653-17.864 15.945-41.408 25.653-67.18 25.653z"/><path d="m467 50h-422c-24.813 0-45 20.187-45 45v228c0 21.375 14.986 39.305 35 43.866v-21.866c0-30.446 10.875-60.982 29.836-83.777.144-.173.293-.341.438-.513-9.059-15.136-14.274-32.824-14.274-51.71 0-55.691 45.308-101 101-101s101 45.309 101 101c0 18.886-5.215 36.574-14.274 51.709.145.172.294.34.439.514 18.96 22.795 29.835 53.331 29.835 83.777v23h198c24.813 0 45-20.187 45-45v-228c0-24.813-20.187-45-45-45zm-179 238c-8.284 0-15-6.716-15-15s6.716-15 15-15 15 6.716 15 15-6.716 15-15 15zm0-64c-8.284 0-15-6.716-15-15s6.716-15 15-15 15 6.716 15 15-6.716 15-15 15zm0-63.998c-8.284 0-15-6.716-15-15s6.716-15 15-15 15 6.716 15 15-6.716 15-15 15zm144 127.998h-80c-8.284 0-15-6.716-15-15s6.716-15 15-15h80c8.284 0 15 6.716 15 15s-6.716 15-15 15zm0-64h-80c-8.284 0-15-6.716-15-15s6.716-15 15-15h80c8.284 0 15 6.716 15 15s-6.716 15-15 15zm0-64h-80c-8.284 0-15-6.716-15-15s6.716-15 15-15h80c8.284 0 15 6.716 15 15s-6.716 15-15 15z"/><circle cx="152" cy="209" r="71"/></g></svg>